<mxfile host="app.diagrams.net" modified="2024-05-18T00:23:36.443Z" agent="Mozilla/5.0 (Windows NT 10.0; Win64; x64; rv:126.0) Gecko/20100101 Firefox/126.0" etag="2Gvfl6D67KN878uvV1Cp" version="24.4.3" type="github">
  <diagram name="Page-1" id="XCapX623ZK9VIntV2yf6">
    <mxGraphModel dx="1434" dy="774" grid="1" gridSize="10" guides="1" tooltips="1" connect="1" arrows="1" fold="1" page="1" pageScale="1" pageWidth="850" pageHeight="1100" math="0" shadow="0">
      <root>
        <mxCell id="0" />
        <mxCell id="1" parent="0" />
        <mxCell id="y3648cTaK8qfpZ_CPwrZ-3" value="" style="whiteSpace=wrap;html=1;aspect=fixed;fillColor=default;perimeterSpacing=4;gradientColor=none;" vertex="1" parent="1">
          <mxGeometry x="70" y="160" width="660" height="660" as="geometry" />
        </mxCell>
      </root>
    </mxGraphModel>
  </diagram>
</mxfile>
